<?xml version="1.0" encoding="UTF-8" standalone="no"?>
<!-- Generator: Adobe Illustrator 27.6.0, SVG Export Plug-In . SVG Version: 6.00 Build 0)  -->

<svg
   version="1.1"
   id="Layer_1"
   x="0px"
   y="0px"
   viewBox="0 0 42.560001 11.616695"
   xml:space="preserve"
   sodipodi:docname="a5132657279fe73fc1ded68687a3732f.svg"
   width="42.560001"
   height="11.616695"
   xmlns:inkscape="http://www.inkscape.org/namespaces/inkscape"
   xmlns:sodipodi="http://sodipodi.sourceforge.net/DTD/sodipodi-0.dtd"
   xmlns="http://www.w3.org/2000/svg"
   xmlns:svg="http://www.w3.org/2000/svg"><defs
   id="defs35" /><sodipodi:namedview
   id="namedview33"
   pagecolor="#ffffff"
   bordercolor="#666666"
   borderopacity="1.0"
   inkscape:pageshadow="2"
   inkscape:pageopacity="0.0"
   inkscape:pagecheckerboard="0" />
<g
   id="A_00000072977279544468437470000005369044590913475717_"
   transform="translate(-10.72,-0.19330461)">
	<g
   id="g18">
		<path
   d="m 28.75,10.91 v 0.88 H 28.47 V 9.68 h 0.6 c 0.13,0 0.25,0.01 0.35,0.04 0.1,0.03 0.18,0.07 0.24,0.12 0.06,0.05 0.11,0.11 0.14,0.18 0.03,0.07 0.05,0.15 0.05,0.24 0,0.07 -0.01,0.14 -0.04,0.21 -0.02,0.06 -0.06,0.12 -0.1,0.17 -0.04,0.05 -0.1,0.1 -0.16,0.13 -0.06,0.04 -0.14,0.06 -0.22,0.08 0.04,0.02 0.07,0.05 0.09,0.09 l 0.61,0.84 h -0.25 c -0.05,0 -0.09,-0.02 -0.11,-0.06 L 29.12,10.97 C 29.1,10.95 29.09,10.93 29.07,10.92 29.05,10.91 29.02,10.9 28.98,10.9 h -0.23 z m 0,-0.21 h 0.3 c 0.08,0 0.16,-0.01 0.22,-0.03 0.06,-0.02 0.12,-0.05 0.16,-0.09 0.04,-0.04 0.07,-0.08 0.1,-0.13 0.02,-0.05 0.03,-0.11 0.03,-0.17 0,-0.13 -0.04,-0.22 -0.12,-0.28 C 29.36,9.94 29.23,9.9 29.07,9.9 h -0.31 v 0.8 z"
   id="path2" />
		<path
   d="m 33.75,10.74 c 0,0.16 -0.03,0.3 -0.08,0.43 -0.05,0.13 -0.12,0.25 -0.21,0.34 -0.09,0.1 -0.2,0.17 -0.33,0.22 -0.13,0.05 -0.27,0.08 -0.42,0.08 -0.16,0 -0.3,-0.03 -0.42,-0.08 -0.13,-0.05 -0.24,-0.13 -0.33,-0.22 -0.09,-0.1 -0.16,-0.21 -0.21,-0.34 -0.05,-0.13 -0.08,-0.28 -0.08,-0.43 0,-0.15 0.03,-0.3 0.08,-0.43 0.05,-0.13 0.12,-0.25 0.21,-0.34 0.09,-0.1 0.2,-0.17 0.33,-0.22 0.13,-0.05 0.27,-0.08 0.42,-0.08 0.15,0 0.3,0.03 0.42,0.08 0.13,0.05 0.24,0.13 0.33,0.22 0.09,0.1 0.16,0.21 0.21,0.34 0.06,0.12 0.08,0.27 0.08,0.43 z m -0.29,0 c 0,-0.13 -0.02,-0.25 -0.05,-0.35 C 33.37,10.29 33.32,10.2 33.26,10.13 33.2,10.06 33.12,10 33.02,9.97 32.93,9.93 32.82,9.91 32.71,9.91 c -0.11,0 -0.22,0.02 -0.31,0.06 -0.09,0.04 -0.17,0.09 -0.24,0.16 -0.07,0.07 -0.12,0.16 -0.15,0.26 -0.04,0.1 -0.05,0.22 -0.05,0.35 0,0.13 0.02,0.25 0.05,0.35 0.04,0.1 0.09,0.19 0.15,0.26 0.07,0.07 0.14,0.13 0.24,0.16 0.09,0.04 0.19,0.06 0.31,0.06 0.11,0 0.22,-0.02 0.31,-0.06 0.09,-0.04 0.17,-0.09 0.24,-0.16 0.06,-0.07 0.11,-0.16 0.15,-0.26 0.03,-0.11 0.05,-0.22 0.05,-0.35 z"
   id="path4" />
		<path
   d="M 35.67,11.79 V 9.68 h 0.67 c 0.13,0 0.24,0.01 0.33,0.04 0.09,0.03 0.17,0.06 0.23,0.11 0.06,0.05 0.1,0.1 0.13,0.17 0.03,0.07 0.04,0.14 0.04,0.23 0,0.05 -0.01,0.1 -0.02,0.15 -0.02,0.05 -0.04,0.09 -0.07,0.13 -0.03,0.04 -0.07,0.08 -0.12,0.11 -0.05,0.03 -0.11,0.06 -0.17,0.08 0.15,0.03 0.27,0.09 0.35,0.17 0.08,0.08 0.12,0.19 0.12,0.32 0,0.09 -0.02,0.17 -0.05,0.24 -0.03,0.07 -0.08,0.14 -0.14,0.19 -0.06,0.05 -0.14,0.09 -0.23,0.12 -0.09,0.03 -0.2,0.04 -0.31,0.04 h -0.76 z m 0.29,-1.16 h 0.38 c 0.08,0 0.15,-0.01 0.21,-0.03 0.06,-0.02 0.11,-0.04 0.15,-0.07 0.04,-0.03 0.07,-0.07 0.09,-0.11 0.02,-0.04 0.03,-0.09 0.03,-0.15 0,-0.12 -0.04,-0.21 -0.11,-0.27 C 36.64,9.94 36.52,9.91 36.36,9.91 h -0.39 v 0.72 z m 0,0.2 v 0.73 h 0.46 c 0.08,0 0.15,-0.01 0.21,-0.03 0.06,-0.02 0.11,-0.04 0.14,-0.08 0.04,-0.03 0.07,-0.07 0.08,-0.12 0.02,-0.05 0.03,-0.1 0.03,-0.15 0,-0.11 -0.04,-0.19 -0.12,-0.26 -0.08,-0.06 -0.19,-0.09 -0.35,-0.09 z"
   id="path6" />
		<path
   d="m 41.06,10.74 c 0,0.16 -0.03,0.3 -0.08,0.43 -0.05,0.13 -0.12,0.25 -0.21,0.34 -0.09,0.1 -0.2,0.17 -0.33,0.22 -0.13,0.05 -0.27,0.08 -0.42,0.08 -0.16,0 -0.3,-0.03 -0.42,-0.08 -0.13,-0.05 -0.24,-0.13 -0.33,-0.22 -0.09,-0.1 -0.16,-0.21 -0.21,-0.34 -0.05,-0.13 -0.08,-0.28 -0.08,-0.43 0,-0.15 0.03,-0.3 0.08,-0.43 0.05,-0.13 0.12,-0.25 0.21,-0.34 0.09,-0.1 0.2,-0.17 0.33,-0.22 0.13,-0.05 0.27,-0.08 0.42,-0.08 0.15,0 0.3,0.03 0.42,0.08 0.13,0.05 0.24,0.13 0.33,0.22 0.09,0.1 0.16,0.21 0.21,0.34 0.06,0.12 0.08,0.27 0.08,0.43 z m -0.29,0 c 0,-0.13 -0.02,-0.25 -0.05,-0.35 C 40.68,10.29 40.63,10.2 40.57,10.13 40.51,10.06 40.43,10 40.33,9.97 40.24,9.93 40.13,9.91 40.02,9.91 c -0.11,0 -0.22,0.02 -0.31,0.06 -0.09,0.04 -0.17,0.09 -0.24,0.16 -0.07,0.07 -0.12,0.16 -0.15,0.26 -0.04,0.1 -0.05,0.22 -0.05,0.35 0,0.13 0.02,0.25 0.05,0.35 0.04,0.1 0.09,0.19 0.15,0.26 0.07,0.07 0.14,0.13 0.24,0.16 0.09,0.04 0.19,0.06 0.31,0.06 0.11,0 0.22,-0.02 0.31,-0.06 0.09,-0.04 0.17,-0.09 0.24,-0.16 0.06,-0.07 0.11,-0.16 0.15,-0.26 0.03,-0.11 0.05,-0.22 0.05,-0.35 z"
   id="path8" />
		<path
   d="M 44.28,9.68 V 9.92 H 43.6 v 1.87 H 43.31 V 9.92 H 42.63 V 9.68 Z"
   id="path10" />
		<path
   d="M 46.44,11.79 H 46.15 V 9.68 h 0.29 z"
   id="path12" />
		<path
   d="m 50.03,11.35 c 0.02,0 0.03,0.01 0.04,0.02 l 0.11,0.12 c -0.09,0.1 -0.19,0.18 -0.31,0.23 -0.12,0.06 -0.27,0.08 -0.45,0.08 -0.15,0 -0.29,-0.03 -0.41,-0.08 -0.12,-0.05 -0.23,-0.13 -0.32,-0.22 -0.09,-0.09 -0.16,-0.21 -0.2,-0.34 -0.05,-0.13 -0.07,-0.28 -0.07,-0.44 0,-0.16 0.03,-0.3 0.08,-0.44 0.05,-0.13 0.12,-0.25 0.22,-0.34 0.09,-0.1 0.2,-0.17 0.33,-0.22 0.13,-0.05 0.27,-0.08 0.43,-0.08 0.15,0 0.29,0.02 0.4,0.07 0.11,0.05 0.21,0.11 0.3,0.2 l -0.09,0.13 c -0.01,0.01 -0.01,0.02 -0.02,0.02 -0.01,0.01 -0.02,0.01 -0.04,0.01 -0.01,0 -0.03,0 -0.04,-0.01 C 49.98,10.05 49.96,10.04 49.94,10.03 49.92,10.02 49.9,10 49.87,9.99 49.84,9.97 49.81,9.96 49.78,9.95 49.74,9.94 49.7,9.92 49.65,9.92 49.6,9.91 49.55,9.91 49.48,9.91 c -0.11,0 -0.22,0.02 -0.31,0.06 -0.09,0.04 -0.17,0.09 -0.24,0.17 -0.07,0.07 -0.12,0.16 -0.16,0.26 -0.04,0.1 -0.06,0.22 -0.06,0.35 0,0.13 0.02,0.25 0.06,0.35 0.04,0.1 0.09,0.19 0.15,0.26 0.07,0.07 0.14,0.13 0.23,0.16 0.09,0.04 0.19,0.06 0.29,0.06 0.06,0 0.12,0 0.17,-0.01 0.05,-0.01 0.1,-0.02 0.14,-0.03 0.04,-0.02 0.08,-0.04 0.12,-0.06 0.04,-0.02 0.07,-0.05 0.11,-0.09 0.01,-0.03 0.03,-0.04 0.05,-0.04 z"
   id="path14" />
		<path
   d="m 53.17,10.01 c -0.01,0.01 -0.02,0.03 -0.03,0.03 -0.01,0.01 -0.02,0.01 -0.04,0.01 -0.02,0 -0.04,-0.01 -0.06,-0.03 C 53.02,10 52.99,9.98 52.96,9.96 52.93,9.94 52.89,9.92 52.84,9.9 52.79,9.88 52.73,9.88 52.67,9.88 c -0.06,0 -0.12,0.01 -0.17,0.03 -0.05,0.02 -0.09,0.04 -0.12,0.07 -0.03,0.03 -0.06,0.06 -0.07,0.1 -0.02,0.04 -0.03,0.08 -0.03,0.13 0,0.06 0.01,0.11 0.04,0.15 0.03,0.04 0.07,0.07 0.11,0.1 0.05,0.03 0.1,0.05 0.16,0.07 0.06,0.02 0.12,0.04 0.19,0.06 0.06,0.02 0.13,0.05 0.19,0.07 0.06,0.03 0.11,0.06 0.16,0.1 0.05,0.04 0.09,0.09 0.11,0.15 0.03,0.06 0.04,0.13 0.04,0.22 0,0.09 -0.02,0.18 -0.05,0.26 -0.03,0.08 -0.08,0.15 -0.14,0.21 -0.06,0.06 -0.13,0.11 -0.22,0.14 -0.09,0.03 -0.19,0.05 -0.3,0.05 -0.14,0 -0.26,-0.02 -0.37,-0.07 -0.11,-0.05 -0.21,-0.12 -0.29,-0.2 L 52,11.4 c 0.01,-0.01 0.02,-0.02 0.03,-0.03 0.01,-0.01 0.02,-0.01 0.04,-0.01 0.02,0 0.04,0.01 0.07,0.03 0.03,0.02 0.06,0.05 0.1,0.07 0.04,0.03 0.09,0.05 0.14,0.07 0.06,0.02 0.13,0.03 0.21,0.03 0.07,0 0.13,-0.01 0.18,-0.03 0.05,-0.02 0.1,-0.04 0.13,-0.08 0.04,-0.03 0.07,-0.07 0.08,-0.12 0.01,-0.05 0.03,-0.1 0.03,-0.16 0,-0.06 -0.01,-0.12 -0.04,-0.16 -0.03,-0.04 -0.07,-0.07 -0.11,-0.1 -0.05,-0.03 -0.1,-0.05 -0.16,-0.07 -0.06,-0.02 -0.12,-0.04 -0.19,-0.06 -0.06,-0.02 -0.13,-0.04 -0.19,-0.07 -0.06,-0.03 -0.11,-0.06 -0.16,-0.1 -0.05,-0.04 -0.09,-0.09 -0.11,-0.16 -0.03,-0.06 -0.04,-0.14 -0.04,-0.23 0,-0.07 0.01,-0.15 0.04,-0.22 0.03,-0.07 0.07,-0.13 0.13,-0.19 0.05,-0.05 0.12,-0.1 0.2,-0.13 0.08,-0.03 0.17,-0.05 0.28,-0.05 0.12,0 0.23,0.02 0.32,0.06 0.1,0.04 0.18,0.09 0.25,0.16 z"
   id="path16" />
	</g>
	<g
   id="EURA_00000108989923776757904360000001336828897469815213_">
		<g
   id="g22">
			<path
   d="m 26.85,3.89 h -5.14 l -0.55,1.17 h 5.69 z M 27.2,1.59 V 0.91 h -4.1 l -0.54,1.16 h 4.16 c 0.32,0 0.48,-0.16 0.48,-0.48 z m -0.36,5.29 h -6.53 l -0.55,1.19 h 7.56 V 7.35 c 0,-0.31 -0.16,-0.47 -0.48,-0.47 z"
   id="path20" />
		</g>
	</g>
	<g
   id="EURA_copy_00000042709861794096274820000008382929419264718470_">
		<g
   id="g27">
			<path
   d="m 35.04,0.9 c -0.35,0 -0.46,0.33 -0.46,0.65 v 4.04 c 0,1.04 -0.52,1.56 -1.56,1.56 h -1.8 c -1.04,0 -1.56,-0.52 -1.56,-1.56 v -4.2 c 0,-0.32 -0.16,-0.48 -0.48,-0.48 h -0.72 v 4.67 c 0,1.68 0.84,2.52 2.52,2.52 h 2.28 c 1.68,0 2.52,-0.84 2.52,-2.52 L 35.77,0.9 Z M 49.33,0.89 h -1.2 l -2.8,5.99 C 45.3,6.95 45.22,7.07 45,7.07 44.81,7.07 43.99,7.06 43.78,7.06 43.57,7.06 43.43,6.88 43.43,6.88 L 41.82,4.96 h 0.21 c 1.36,0 2.04,-0.68 2.04,-2.04 0,-1.36 -0.68,-2.04 -2.04,-2.04 h -4.91 v 7.19 h 0.72 c 0.32,0 0.48,-0.16 0.48,-0.48 V 4.97 4.01 1.85 h 3.48 c 0.72,0 1.08,0.36 1.08,1.08 0,0.72 -0.36,1.08 -1.08,1.08 0,0 -0.99,-0.01 -1.93,-0.01 -0.32,0 0.56,0.97 0.56,0.97 l 2.21,2.64 c 0.27,0.32 0.56,0.48 0.88,0.48 h 0.93 0.34 0.71 c 0.32,0 0.56,-0.16 0.71,-0.48 l 2.54,-5.44 2.54,5.44 c 0.15,0.32 0.39,0.48 0.71,0.48 h 0.71 z"
   id="path25" />
		</g>
	</g>
	<path
   id="N_short_00000045597317061954339730000004931815190034935982_"
   d="m 15.34,4.51 0.89,-1.92 1.16,1.24 c 0,0 0,0 0,0 0.23,0.17 0.57,0.11 0.72,-0.21 L 18.59,2.58 20.44,3.3 18.3,7.89 C 18.14,8.24 17.59,8.36 17.08,8.16 16.57,7.96 16.29,7.52 16.45,7.17 L 16.67,6.7 C 16.82,6.38 16.72,5.97 16.5,5.74 Z M 20.77,2.58 18.92,1.87 19.53,0.56 c 0.16,-0.35 0.71,-0.47 1.22,-0.27 0.51,0.2 0.79,0.64 0.63,0.99 z M 14,1.22 C 14.14,0.9 14.57,0.81 15.08,1 c 0.51,0.2 0.8,0.62 0.66,0.93 l -2.54,5.5 c -0.26,0.56 -0.68,0.84 -1.24,0.84 h -1.24 z" />
</g>
</svg>
