<?xml version="1.0" encoding="UTF-8"?>
<svg xmlns="http://www.w3.org/2000/svg" xmlns:xlink="http://www.w3.org/1999/xlink" width="12px" height="12px" viewBox="0 0 12 12" version="1.1">
<g id="surface1">
<path style=" stroke:none;fill-rule:nonzero;fill:rgb(0%,0%,0%);fill-opacity:1;" d="M 5.582031 0.0234375 C 4.546875 0.0976562 3.546875 0.433594 2.695312 0.992188 C 1.671875 1.667969 0.867188 2.652344 0.425781 3.777344 C -0.140625 5.21875 -0.140625 6.757812 0.425781 8.195312 C 1.019531 9.707031 2.253906 10.941406 3.765625 11.535156 C 4.941406 12 6.179688 12.085938 7.394531 11.789062 C 9.121094 11.367188 10.558594 10.207031 11.34375 8.609375 C 12.152344 6.957031 12.152344 5.015625 11.34375 3.367188 C 10.332031 1.300781 8.230469 -0.00390625 5.941406 0.0117188 C 5.816406 0.015625 5.65625 0.0195312 5.582031 0.0234375 Z M 6.539062 1.125 C 7.335938 1.21875 8.082031 1.492188 8.738281 1.9375 C 9.742188 2.621094 10.457031 3.640625 10.746094 4.816406 C 11.078125 6.164062 10.824219 7.589844 10.046875 8.738281 C 9.695312 9.257812 9.257812 9.695312 8.738281 10.046875 C 7.648438 10.785156 6.316406 11.050781 4.996094 10.792969 C 4.304688 10.65625 3.628906 10.363281 3.0625 9.949219 C 2.902344 9.832031 2.695312 9.660156 2.601562 9.5625 L 2.535156 9.5 L 2.667969 9.210938 C 2.949219 8.597656 3.0625 8.347656 3.191406 8.066406 C 3.414062 7.578125 3.574219 7.238281 3.789062 6.765625 C 3.902344 6.523438 4.03125 6.234375 4.082031 6.128906 C 4.128906 6.023438 4.335938 5.574219 4.539062 5.128906 C 5.074219 3.964844 5.019531 4.097656 5.011719 3.992188 C 5 3.800781 4.847656 3.617188 4.597656 3.492188 C 4.269531 3.332031 3.945312 3.335938 3.773438 3.507812 C 3.726562 3.554688 3.613281 3.792969 2.65625 5.871094 C 2.070312 7.144531 1.589844 8.179688 1.582031 8.175781 C 1.5625 8.15625 1.425781 7.8125 1.367188 7.652344 C 1.191406 7.132812 1.113281 6.683594 1.101562 6.105469 C 1.074219 5.078125 1.363281 4.09375 1.9375 3.25 C 2.292969 2.726562 2.726562 2.292969 3.25 1.9375 C 3.953125 1.460938 4.738281 1.183594 5.613281 1.109375 C 5.792969 1.09375 6.351562 1.101562 6.539062 1.125 Z M 6.539062 1.125 "/>
<path style=" stroke:none;fill-rule:nonzero;fill:rgb(0%,0%,0%);fill-opacity:1;" d="M 8.140625 2.871094 C 7.976562 2.914062 7.867188 2.992188 7.804688 3.117188 C 7.785156 3.15625 7.679688 3.378906 7.570312 3.617188 C 7.460938 3.851562 7.367188 4.054688 7.359375 4.066406 C 7.351562 4.082031 7.355469 4.089844 7.371094 4.09375 C 7.394531 4.101562 7.464844 4.128906 8 4.335938 C 8.632812 4.582031 8.710938 4.613281 8.722656 4.601562 C 8.746094 4.578125 9.1875 3.609375 9.199219 3.554688 C 9.222656 3.4375 9.175781 3.296875 9.078125 3.175781 C 8.867188 2.921875 8.453125 2.789062 8.140625 2.871094 Z M 8.140625 2.871094 "/>
<path style=" stroke:none;fill-rule:nonzero;fill:rgb(0%,0%,0%);fill-opacity:1;" d="M 7.074219 4.6875 C 7.015625 4.808594 6.789062 5.296875 6.746094 5.378906 C 6.667969 5.535156 6.5625 5.613281 6.421875 5.617188 C 6.273438 5.617188 6.269531 5.613281 5.785156 5.09375 C 5.550781 4.839844 5.355469 4.632812 5.355469 4.632812 C 5.351562 4.632812 5.203125 4.953125 5.023438 5.34375 L 4.691406 6.050781 L 5.128906 6.515625 C 5.367188 6.773438 5.574219 7 5.59375 7.019531 C 5.667969 7.121094 5.730469 7.308594 5.730469 7.4375 C 5.730469 7.53125 5.695312 7.636719 5.589844 7.859375 L 5.488281 8.082031 L 5.488281 8.183594 C 5.488281 8.328125 5.53125 8.417969 5.671875 8.554688 C 5.753906 8.636719 5.792969 8.667969 5.886719 8.710938 C 6.054688 8.796875 6.15625 8.820312 6.34375 8.820312 C 6.480469 8.820312 6.511719 8.816406 6.59375 8.789062 C 6.695312 8.753906 6.785156 8.695312 6.839844 8.625 C 6.859375 8.601562 7.148438 7.988281 7.488281 7.261719 C 7.828125 6.535156 8.183594 5.769531 8.28125 5.558594 C 8.378906 5.347656 8.460938 5.171875 8.460938 5.164062 C 8.464844 5.152344 8.398438 5.125 7.730469 4.867188 C 7.453125 4.761719 7.199219 4.660156 7.164062 4.648438 L 7.101562 4.621094 Z M 7.074219 4.6875 "/>
</g>
</svg>
