<?xml version="1.0" encoding="UTF-8"?>
<svg xmlns="http://www.w3.org/2000/svg" xmlns:xlink="http://www.w3.org/1999/xlink" width="179px" height="50px" viewBox="0 0 179 50" version="1.1">
<g id="surface1">
<path style=" stroke:none;fill-rule:nonzero;fill:rgb(0%,0%,0%);fill-opacity:1;" d="M 75.054688 44.652344 L 75.054688 48.320312 L 73.890625 48.320312 L 73.890625 39.527344 L 76.386719 39.527344 C 76.929688 39.527344 77.429688 39.570312 77.84375 39.695312 C 78.261719 39.820312 78.59375 39.984375 78.84375 40.195312 C 79.09375 40.402344 79.300781 40.652344 79.425781 40.945312 C 79.550781 41.234375 79.632812 41.570312 79.632812 41.945312 C 79.632812 42.234375 79.59375 42.527344 79.46875 42.820312 C 79.382812 43.070312 79.21875 43.320312 79.050781 43.527344 C 78.886719 43.734375 78.636719 43.945312 78.386719 44.070312 C 78.136719 44.234375 77.800781 44.320312 77.46875 44.402344 C 77.636719 44.484375 77.761719 44.609375 77.84375 44.777344 L 80.382812 48.277344 L 79.34375 48.277344 C 79.132812 48.277344 78.96875 48.195312 78.886719 48.027344 L 76.59375 44.902344 C 76.511719 44.820312 76.46875 44.734375 76.386719 44.695312 C 76.304688 44.652344 76.179688 44.609375 76.011719 44.609375 L 75.054688 44.609375 Z M 75.054688 43.777344 L 76.304688 43.777344 C 76.636719 43.777344 76.96875 43.734375 77.21875 43.652344 C 77.46875 43.570312 77.71875 43.445312 77.886719 43.277344 C 78.050781 43.109375 78.175781 42.945312 78.300781 42.734375 C 78.386719 42.527344 78.425781 42.277344 78.425781 42.027344 C 78.425781 41.484375 78.261719 41.109375 77.925781 40.859375 C 77.59375 40.609375 77.054688 40.445312 76.386719 40.445312 L 75.097656 40.445312 L 75.097656 43.777344 Z M 75.054688 43.777344 "/>
<path style=" stroke:none;fill-rule:nonzero;fill:rgb(0%,0%,0%);fill-opacity:1;" d="M 95.867188 43.945312 C 95.867188 44.609375 95.746094 45.195312 95.535156 45.734375 C 95.328125 46.277344 95.035156 46.777344 94.660156 47.152344 C 94.289062 47.570312 93.828125 47.859375 93.289062 48.070312 C 92.746094 48.277344 92.164062 48.402344 91.539062 48.402344 C 90.875 48.402344 90.289062 48.277344 89.792969 48.070312 C 89.25 47.859375 88.792969 47.527344 88.417969 47.152344 C 88.042969 46.734375 87.75 46.277344 87.542969 45.734375 C 87.335938 45.195312 87.210938 44.570312 87.210938 43.945312 C 87.210938 43.320312 87.335938 42.695312 87.542969 42.152344 C 87.75 41.609375 88.042969 41.109375 88.417969 40.734375 C 88.792969 40.320312 89.25 40.027344 89.792969 39.820312 C 90.332031 39.609375 90.914062 39.484375 91.539062 39.484375 C 92.164062 39.484375 92.789062 39.609375 93.289062 39.820312 C 93.828125 40.027344 94.289062 40.359375 94.660156 40.734375 C 95.035156 41.152344 95.328125 41.609375 95.535156 42.152344 C 95.785156 42.652344 95.867188 43.277344 95.867188 43.945312 Z M 94.660156 43.945312 C 94.660156 43.402344 94.578125 42.902344 94.453125 42.484375 C 94.289062 42.070312 94.078125 41.695312 93.828125 41.402344 C 93.578125 41.109375 93.246094 40.859375 92.832031 40.734375 C 92.457031 40.570312 91.996094 40.484375 91.539062 40.484375 C 91.082031 40.484375 90.625 40.570312 90.25 40.734375 C 89.875 40.902344 89.542969 41.109375 89.25 41.402344 C 88.957031 41.695312 88.75 42.070312 88.625 42.484375 C 88.460938 42.902344 88.417969 43.402344 88.417969 43.945312 C 88.417969 44.484375 88.5 44.984375 88.625 45.402344 C 88.792969 45.820312 89 46.195312 89.25 46.484375 C 89.542969 46.777344 89.832031 47.027344 90.25 47.152344 C 90.625 47.320312 91.039062 47.402344 91.539062 47.402344 C 91.996094 47.402344 92.457031 47.320312 92.832031 47.152344 C 93.203125 46.984375 93.539062 46.777344 93.828125 46.484375 C 94.078125 46.195312 94.289062 45.820312 94.453125 45.402344 C 94.578125 44.945312 94.660156 44.484375 94.660156 43.945312 Z M 94.660156 43.945312 "/>
<path style=" stroke:none;fill-rule:nonzero;fill:rgb(0%,0%,0%);fill-opacity:1;" d="M 103.863281 48.320312 L 103.863281 39.527344 L 106.652344 39.527344 C 107.191406 39.527344 107.648438 39.570312 108.023438 39.695312 C 108.398438 39.820312 108.730469 39.945312 108.980469 40.152344 C 109.230469 40.359375 109.398438 40.570312 109.523438 40.859375 C 109.648438 41.152344 109.691406 41.445312 109.691406 41.820312 C 109.691406 42.027344 109.648438 42.234375 109.605469 42.445312 C 109.523438 42.652344 109.441406 42.820312 109.316406 42.984375 C 109.191406 43.152344 109.023438 43.320312 108.816406 43.445312 C 108.605469 43.570312 108.359375 43.695312 108.109375 43.777344 C 108.730469 43.902344 109.230469 44.152344 109.566406 44.484375 C 109.898438 44.820312 110.0625 45.277344 110.0625 45.820312 C 110.0625 46.195312 109.980469 46.527344 109.855469 46.820312 C 109.730469 47.109375 109.523438 47.402344 109.273438 47.609375 C 109.023438 47.820312 108.691406 47.984375 108.316406 48.109375 C 107.941406 48.234375 107.484375 48.277344 107.023438 48.277344 L 103.863281 48.277344 Z M 105.070312 43.484375 L 106.652344 43.484375 C 106.984375 43.484375 107.273438 43.445312 107.523438 43.359375 C 107.773438 43.277344 107.984375 43.195312 108.148438 43.070312 C 108.316406 42.945312 108.441406 42.777344 108.523438 42.609375 C 108.605469 42.445312 108.648438 42.234375 108.648438 41.984375 C 108.648438 41.484375 108.480469 41.109375 108.191406 40.859375 C 107.898438 40.609375 107.398438 40.484375 106.734375 40.484375 L 105.109375 40.484375 L 105.109375 43.484375 Z M 105.070312 44.320312 L 105.070312 47.359375 L 106.984375 47.359375 C 107.316406 47.359375 107.609375 47.320312 107.859375 47.234375 C 108.109375 47.152344 108.316406 47.070312 108.441406 46.902344 C 108.605469 46.777344 108.730469 46.609375 108.773438 46.402344 C 108.855469 46.195312 108.898438 45.984375 108.898438 45.777344 C 108.898438 45.320312 108.730469 44.984375 108.398438 44.695312 C 108.066406 44.445312 107.609375 44.320312 106.941406 44.320312 Z M 105.070312 44.320312 "/>
<path style=" stroke:none;fill-rule:nonzero;fill:rgb(0%,0%,0%);fill-opacity:1;" d="M 126.300781 43.945312 C 126.300781 44.609375 126.175781 45.195312 125.964844 45.734375 C 125.757812 46.277344 125.464844 46.777344 125.09375 47.152344 C 124.71875 47.570312 124.257812 47.859375 123.71875 48.070312 C 123.175781 48.277344 122.59375 48.402344 121.96875 48.402344 C 121.304688 48.402344 120.722656 48.277344 120.222656 48.070312 C 119.679688 47.859375 119.222656 47.527344 118.847656 47.152344 C 118.472656 46.734375 118.179688 46.277344 117.972656 45.734375 C 117.765625 45.195312 117.640625 44.570312 117.640625 43.945312 C 117.640625 43.320312 117.765625 42.695312 117.972656 42.152344 C 118.179688 41.609375 118.472656 41.109375 118.847656 40.734375 C 119.222656 40.320312 119.679688 40.027344 120.222656 39.820312 C 120.761719 39.609375 121.34375 39.484375 121.96875 39.484375 C 122.59375 39.484375 123.21875 39.609375 123.71875 39.820312 C 124.257812 40.027344 124.71875 40.359375 125.09375 40.734375 C 125.464844 41.152344 125.757812 41.609375 125.964844 42.152344 C 126.214844 42.652344 126.300781 43.277344 126.300781 43.945312 Z M 125.09375 43.945312 C 125.09375 43.402344 125.007812 42.902344 124.882812 42.484375 C 124.71875 42.070312 124.507812 41.695312 124.257812 41.402344 C 124.007812 41.109375 123.675781 40.859375 123.261719 40.734375 C 122.886719 40.570312 122.425781 40.484375 121.96875 40.484375 C 121.511719 40.484375 121.054688 40.570312 120.679688 40.734375 C 120.304688 40.902344 119.972656 41.109375 119.679688 41.402344 C 119.390625 41.695312 119.179688 42.070312 119.054688 42.484375 C 118.890625 42.902344 118.847656 43.402344 118.847656 43.945312 C 118.847656 44.484375 118.929688 44.984375 119.054688 45.402344 C 119.222656 45.820312 119.429688 46.195312 119.679688 46.484375 C 119.972656 46.777344 120.261719 47.027344 120.679688 47.152344 C 121.054688 47.320312 121.46875 47.402344 121.96875 47.402344 C 122.425781 47.402344 122.886719 47.320312 123.261719 47.152344 C 123.636719 46.984375 123.96875 46.777344 124.257812 46.484375 C 124.507812 46.195312 124.71875 45.820312 124.882812 45.402344 C 125.007812 44.945312 125.09375 44.484375 125.09375 43.945312 Z M 125.09375 43.945312 "/>
<path style=" stroke:none;fill-rule:nonzero;fill:rgb(0%,0%,0%);fill-opacity:1;" d="M 139.703125 39.527344 L 139.703125 40.527344 L 136.871094 40.527344 L 136.871094 48.320312 L 135.664062 48.320312 L 135.664062 40.527344 L 132.835938 40.527344 L 132.835938 39.527344 Z M 139.703125 39.527344 "/>
<path style=" stroke:none;fill-rule:nonzero;fill:rgb(0%,0%,0%);fill-opacity:1;" d="M 148.695312 48.320312 L 147.488281 48.320312 L 147.488281 39.527344 L 148.695312 39.527344 Z M 148.695312 48.320312 "/>
<path style=" stroke:none;fill-rule:nonzero;fill:rgb(0%,0%,0%);fill-opacity:1;" d="M 163.640625 46.484375 C 163.722656 46.484375 163.765625 46.527344 163.804688 46.570312 L 164.265625 47.070312 C 163.890625 47.484375 163.472656 47.820312 162.972656 48.027344 C 162.472656 48.277344 161.847656 48.359375 161.101562 48.359375 C 160.476562 48.359375 159.894531 48.234375 159.394531 48.027344 C 158.894531 47.820312 158.4375 47.484375 158.0625 47.109375 C 157.6875 46.734375 157.394531 46.234375 157.230469 45.695312 C 157.019531 45.152344 156.9375 44.527344 156.9375 43.859375 C 156.9375 43.195312 157.0625 42.609375 157.269531 42.027344 C 157.476562 41.484375 157.769531 40.984375 158.1875 40.609375 C 158.5625 40.195312 159.019531 39.902344 159.558594 39.695312 C 160.101562 39.484375 160.683594 39.359375 161.351562 39.359375 C 161.972656 39.359375 162.558594 39.445312 163.015625 39.652344 C 163.472656 39.859375 163.890625 40.109375 164.265625 40.484375 L 163.890625 41.027344 C 163.847656 41.070312 163.847656 41.109375 163.804688 41.109375 C 163.765625 41.152344 163.722656 41.152344 163.640625 41.152344 C 163.597656 41.152344 163.515625 41.152344 163.472656 41.109375 C 163.429688 41.070312 163.347656 41.027344 163.265625 40.984375 C 163.179688 40.945312 163.097656 40.859375 162.972656 40.820312 C 162.847656 40.734375 162.722656 40.695312 162.597656 40.652344 C 162.433594 40.609375 162.265625 40.527344 162.058594 40.527344 C 161.847656 40.484375 161.640625 40.484375 161.351562 40.484375 C 160.890625 40.484375 160.433594 40.570312 160.058594 40.734375 C 159.683594 40.902344 159.351562 41.109375 159.058594 41.445312 C 158.769531 41.734375 158.5625 42.109375 158.394531 42.527344 C 158.226562 42.945312 158.144531 43.445312 158.144531 43.984375 C 158.144531 44.527344 158.226562 45.027344 158.394531 45.445312 C 158.5625 45.859375 158.769531 46.234375 159.019531 46.527344 C 159.308594 46.820312 159.601562 47.070312 159.976562 47.195312 C 160.351562 47.359375 160.765625 47.445312 161.183594 47.445312 C 161.433594 47.445312 161.683594 47.445312 161.890625 47.402344 C 162.097656 47.359375 162.308594 47.320312 162.472656 47.277344 C 162.640625 47.195312 162.808594 47.109375 162.972656 47.027344 C 163.140625 46.945312 163.265625 46.820312 163.429688 46.652344 C 163.472656 46.527344 163.554688 46.484375 163.640625 46.484375 Z M 163.640625 46.484375 "/>
<path style=" stroke:none;fill-rule:nonzero;fill:rgb(0%,0%,0%);fill-opacity:1;" d="M 176.710938 40.902344 C 176.667969 40.945312 176.628906 41.027344 176.585938 41.027344 C 176.542969 41.070312 176.503906 41.070312 176.417969 41.070312 C 176.335938 41.070312 176.253906 41.027344 176.167969 40.945312 C 176.085938 40.859375 175.960938 40.777344 175.835938 40.695312 C 175.710938 40.609375 175.542969 40.527344 175.335938 40.445312 C 175.128906 40.359375 174.878906 40.359375 174.628906 40.359375 C 174.378906 40.359375 174.128906 40.402344 173.921875 40.484375 C 173.714844 40.570312 173.546875 40.652344 173.421875 40.777344 C 173.296875 40.902344 173.171875 41.027344 173.128906 41.195312 C 173.046875 41.359375 173.003906 41.527344 173.003906 41.734375 C 173.003906 41.984375 173.046875 42.195312 173.171875 42.359375 C 173.296875 42.527344 173.464844 42.652344 173.628906 42.777344 C 173.839844 42.902344 174.046875 42.984375 174.296875 43.070312 C 174.546875 43.152344 174.796875 43.234375 175.085938 43.320312 C 175.335938 43.402344 175.628906 43.527344 175.878906 43.609375 C 176.128906 43.734375 176.335938 43.859375 176.542969 44.027344 C 176.753906 44.195312 176.917969 44.402344 177 44.652344 C 177.125 44.902344 177.167969 45.195312 177.167969 45.570312 C 177.167969 45.945312 177.085938 46.320312 176.960938 46.652344 C 176.835938 46.984375 176.628906 47.277344 176.378906 47.527344 C 176.128906 47.777344 175.835938 47.984375 175.460938 48.109375 C 175.085938 48.234375 174.671875 48.320312 174.210938 48.320312 C 173.628906 48.320312 173.128906 48.234375 172.671875 48.027344 C 172.214844 47.820312 171.796875 47.527344 171.464844 47.195312 L 171.839844 46.695312 C 171.882812 46.652344 171.921875 46.609375 171.964844 46.570312 C 172.007812 46.527344 172.046875 46.527344 172.132812 46.527344 C 172.214844 46.527344 172.296875 46.570312 172.421875 46.652344 C 172.546875 46.734375 172.671875 46.859375 172.839844 46.945312 C 173.003906 47.070312 173.214844 47.152344 173.421875 47.234375 C 173.671875 47.320312 173.964844 47.359375 174.296875 47.359375 C 174.585938 47.359375 174.835938 47.320312 175.046875 47.234375 C 175.253906 47.152344 175.460938 47.070312 175.585938 46.902344 C 175.753906 46.777344 175.878906 46.609375 175.917969 46.402344 C 175.960938 46.195312 176.042969 45.984375 176.042969 45.734375 C 176.042969 45.484375 176.003906 45.234375 175.878906 45.070312 C 175.753906 44.902344 175.585938 44.777344 175.421875 44.652344 C 175.210938 44.527344 175.003906 44.445312 174.753906 44.359375 C 174.503906 44.277344 174.253906 44.195312 173.964844 44.109375 C 173.714844 44.027344 173.421875 43.945312 173.171875 43.820312 C 172.921875 43.695312 172.714844 43.570312 172.507812 43.402344 C 172.296875 43.234375 172.132812 43.027344 172.046875 42.734375 C 171.921875 42.484375 171.882812 42.152344 171.882812 41.777344 C 171.882812 41.484375 171.921875 41.152344 172.046875 40.859375 C 172.171875 40.570312 172.339844 40.320312 172.589844 40.070312 C 172.796875 39.859375 173.089844 39.652344 173.421875 39.527344 C 173.753906 39.402344 174.128906 39.320312 174.585938 39.320312 C 175.085938 39.320312 175.542969 39.402344 175.917969 39.570312 C 176.335938 39.734375 176.667969 39.945312 176.960938 40.234375 Z M 176.710938 40.902344 "/>
<path style=" stroke:none;fill-rule:nonzero;fill:rgb(0%,0%,0%);fill-opacity:1;" d="M 67.144531 15.402344 L 45.75 15.402344 L 43.460938 20.277344 L 67.144531 20.277344 Z M 68.601562 5.820312 L 68.601562 2.984375 L 51.535156 2.984375 L 49.289062 7.820312 L 66.605469 7.820312 C 67.9375 7.820312 68.601562 7.152344 68.601562 5.820312 Z M 67.105469 27.859375 L 39.921875 27.859375 L 37.632812 32.820312 L 69.101562 32.820312 L 69.101562 29.820312 C 69.101562 28.527344 68.4375 27.859375 67.105469 27.859375 Z M 67.105469 27.859375 "/>
<path style=" stroke:none;fill-rule:nonzero;fill:rgb(0%,0%,0%);fill-opacity:1;" d="M 101.238281 2.945312 C 99.78125 2.945312 99.324219 4.320312 99.324219 5.652344 L 99.324219 22.484375 C 99.324219 26.820312 97.160156 28.984375 92.832031 28.984375 L 85.335938 28.984375 C 81.007812 28.984375 78.84375 26.820312 78.84375 22.484375 L 78.84375 4.984375 C 78.84375 3.652344 78.175781 2.984375 76.84375 2.984375 L 73.847656 2.984375 L 73.847656 22.445312 C 73.847656 29.445312 77.34375 32.945312 84.339844 32.945312 L 93.828125 32.945312 C 100.824219 32.945312 104.320312 29.445312 104.320312 22.445312 L 104.277344 2.945312 Z M 160.726562 2.902344 L 155.730469 2.902344 L 144.074219 27.859375 C 143.949219 28.152344 143.617188 28.652344 142.699219 28.652344 C 141.910156 28.652344 138.496094 28.609375 137.621094 28.609375 C 136.746094 28.609375 136.164062 27.859375 136.164062 27.859375 L 129.460938 19.859375 L 130.335938 19.859375 C 136 19.859375 138.828125 17.027344 138.828125 11.359375 C 138.828125 5.695312 136 2.859375 130.335938 2.859375 L 109.898438 2.859375 L 109.898438 32.820312 L 112.894531 32.820312 C 114.226562 32.820312 114.894531 32.152344 114.894531 30.820312 L 114.894531 6.902344 L 129.378906 6.902344 C 132.375 6.902344 133.875 8.402344 133.875 11.402344 C 133.875 14.402344 132.375 15.902344 129.378906 15.902344 C 129.378906 15.902344 125.257812 15.859375 121.34375 15.859375 C 120.011719 15.859375 123.675781 19.902344 123.675781 19.902344 L 132.875 30.902344 C 134 32.234375 135.207031 32.902344 136.539062 32.902344 L 144.78125 32.902344 C 146.113281 32.902344 147.113281 32.234375 147.738281 30.902344 L 158.3125 8.234375 L 168.882812 30.902344 C 169.507812 32.234375 170.507812 32.902344 171.839844 32.902344 L 174.796875 32.902344 Z M 160.726562 2.902344 "/>
<path style=" stroke:none;fill-rule:nonzero;fill:rgb(0%,0%,0%);fill-opacity:1;" d="M 19.230469 17.984375 L 22.9375 9.984375 L 27.765625 15.152344 C 28.722656 15.859375 30.136719 15.609375 30.761719 14.277344 L 32.761719 9.945312 L 40.460938 12.945312 L 31.554688 32.070312 C 30.886719 33.527344 28.597656 34.027344 26.476562 33.195312 C 24.351562 32.359375 23.1875 30.527344 23.851562 29.070312 L 24.769531 27.109375 C 25.394531 25.777344 24.976562 24.070312 24.0625 23.109375 Z M 41.835938 9.945312 L 34.136719 6.984375 L 36.675781 1.527344 C 37.339844 0.0703125 39.628906 -0.429688 41.753906 0.402344 C 43.875 1.234375 45.042969 3.070312 44.375 4.527344 Z M 13.652344 4.277344 C 14.238281 2.945312 16.027344 2.570312 18.148438 3.359375 C 20.273438 4.195312 21.480469 5.945312 20.898438 7.234375 L 10.324219 30.152344 C 9.242188 32.484375 7.492188 33.652344 5.160156 33.652344 L 0 33.652344 Z M 13.652344 4.277344 "/>
</g>
</svg>
